<svg width="26" height="47" viewBox="0 0 26 47" fill="none" xmlns="http://www.w3.org/2000/svg">
<path d="M1.98982 22.4226C1.38878 23.0237 1.38878 23.9982 1.98982 24.5992L11.7842 34.3936C12.3853 34.9946 13.3597 34.9946 13.9607 34.3936C14.5618 33.7925 14.5618 32.8181 13.9607 32.2171L5.25462 23.5109L13.9607 14.8048C14.5618 14.2037 14.5618 13.2293 13.9607 12.6283C13.3597 12.0272 12.3853 12.0272 11.7842 12.6283L1.98982 22.4226ZM3.59497 21.9719H3.46575V25.05H3.59497V21.9719ZM3.2073 21.9719H3.07809V25.05H3.2073V21.9719ZM0.90155 21.3344C-0.300517 22.5365 -0.300517 24.4854 0.90155 25.6874L20.4904 45.2763C21.6924 46.4783 23.6413 46.4783 24.8434 45.2763C26.0455 44.0742 26.0455 42.1252 24.8434 40.9232L7.43115 23.5109L24.8434 6.09867C26.0455 4.8966 26.0455 2.94767 24.8434 1.74561C23.6413 0.543538 21.6924 0.543538 20.4904 1.74561L0.90155 21.3344ZM3.59497 20.4329H3.46575V26.589H3.59497V20.4329ZM3.2073 20.4329H3.07809V26.589H3.2073V20.4329Z" fill="#F2F4F8"/>
</svg>
