<svg width="153" height="153" viewBox="0 0 153 153" fill="none" xmlns="http://www.w3.org/2000/svg">
<mask id="mask0_437_1732" style="mask-type:alpha" maskUnits="userSpaceOnUse" x="0" y="0" width="153" height="153">
<circle cx="76.5" cy="76.5" r="76.5" fill="#D9D9D9"/>
</mask>
<g mask="url(#mask0_437_1732)">
<rect width="153" height="153" fill="url(#paint0_linear_437_1732)"/>
<g style="mix-blend-mode:multiply">
<path d="M126.141 94.7874C126.141 94.7874 92.7911 127.635 90.7151 127.734C89.6169 127.787 30.1787 112.88 30.1787 112.88L74.8335 90.5681L126.141 94.7874Z" fill="#D4D4D5"/>
</g>
<path d="M90.3719 109.05L121.451 84.2729C121.451 84.2729 124.388 87.9573 122.33 96.6332L90.1133 125.715C90.1133 125.715 91.9732 115.554 90.3754 109.05H90.3719Z" fill="#162E4C"/>
<path d="M121.451 84.2695L90.372 109.05L31.373 95.5598L76.3715 75.4944L121.451 84.2695Z" fill="#162E4C"/>
<path d="M90.372 109.05C90.372 109.05 92.4692 117.446 90.1098 125.715L31.6565 110.974C31.6565 110.974 30.4343 110.599 31.4864 109.894C32.6094 109.142 34.2674 108.452 34.2674 108.452L88.9585 122.399C88.9585 122.399 89.9646 116.89 88.8911 110.333L30.9904 96.6618C30.9904 96.6618 29.8922 96.056 31.373 95.5601L90.372 109.047V109.05Z" fill="#162E4C"/>
<path d="M33.4455 110.067C33.4455 110.067 34.7882 100.477 33.3569 97.2178L88.9833 110.329C88.9833 110.329 90.2692 118.3 88.9301 124.11L33.4455 110.067Z" fill="#F2F4F8"/>
<path d="M34.4729 108.94L80.0133 119.193L34.487 108.313L34.5791 107.247L49.4688 110.542L34.689 106.698C34.689 106.698 35.5427 100.449 35.1601 98.9005L88.9868 110.329L33.3569 97.2178C34.7917 100.473 33.4455 110.067 33.4455 110.067L88.9301 124.11L34.3808 109.599L34.4729 108.94Z" fill="url(#paint1_linear_437_1732)"/>
<path d="M87.8851 111.286C87.8851 111.286 41.1755 100.406 37.6577 99.5205C37.6577 99.5205 73.2859 108.774 87.8851 111.286Z" fill="url(#paint2_linear_437_1732)"/>
<g style="mix-blend-mode:multiply">
<path d="M41.8312 90.8977C41.8312 90.8977 60.3131 111.353 62.389 111.452C63.4873 111.502 120.052 96.7359 120.052 96.7359L112.691 88.4355L41.8276 90.8977H41.8312Z" fill="#D4D4D5"/>
</g>
<path d="M62.0692 92.7399L30.9932 67.9592C30.9932 67.9592 28.0564 71.6436 30.1147 80.323L62.3313 109.401C62.3313 109.401 60.4714 99.2406 62.0692 92.7364V92.7399Z" fill="#418DED"/>
<path d="M30.9932 67.9592L62.0691 92.7398L121.068 79.2495L76.0695 59.1841L30.9932 67.9592Z" fill="#418DED"/>
<path d="M62.0685 92.7397C62.0685 92.7397 59.9713 101.136 62.3307 109.404L120.784 94.6669C120.784 94.6669 122.006 94.2914 120.95 93.5864C119.827 92.8354 118.17 92.1445 118.17 92.1445L63.4785 106.092C63.4785 106.092 62.4724 100.583 63.5458 94.0257L121.446 80.3547C121.446 80.3547 122.545 79.7489 121.064 79.2529L62.065 92.7433L62.0685 92.7397Z" fill="#418DED"/>
<path d="M118.996 93.7567C118.996 93.7567 117.653 84.1668 119.084 80.9111L63.4579 94.0224C63.4579 94.0224 62.1117 101.136 63.511 107.803L118.996 93.7602V93.7567Z" fill="#F2F4F8"/>
<path d="M117.968 92.6336L72.4276 102.886L117.954 92.0065L117.862 90.9366L102.972 94.2313L117.752 90.3875C117.752 90.3875 116.895 84.1383 117.281 82.5902L63.4541 94.0187L119.08 80.9075C117.646 84.1631 118.992 93.753 118.992 93.753L118.057 93.2854L117.965 92.63L117.968 92.6336Z" fill="url(#paint3_linear_437_1732)"/>
<path d="M64.5562 94.975C64.5562 94.975 111.266 84.0956 114.784 83.21C114.784 83.21 79.1553 92.4598 64.5562 94.975Z" fill="url(#paint4_linear_437_1732)"/>
<g style="mix-blend-mode:multiply">
<path d="M111.429 75.2537C111.429 75.2537 87.6938 96.1871 85.6178 96.2863C84.5196 96.3394 31.4121 81.4958 31.4121 81.4958L76.0669 59.1843L111.426 75.2537H111.429Z" fill="#D4D4D5"/>
</g>
<path d="M85.7703 78.4739L116.85 53.6968C116.85 53.6968 119.787 57.3811 117.728 66.0605L85.5117 95.1384C85.5117 95.1384 87.3716 84.9782 85.7739 78.4739H85.7703Z" fill="#162E4C"/>
<path d="M116.849 53.6931L85.7698 78.4737L26.7744 64.9834L71.7729 44.918L116.849 53.6931Z" fill="#162E4C"/>
<path d="M85.7698 78.4737C85.7698 78.4737 87.867 86.8697 85.5076 95.1382L27.0578 80.3974C27.0578 80.3974 25.8356 80.0219 26.8913 79.3169C28.0143 78.5658 29.6723 77.875 29.6723 77.875L84.3634 91.8223C84.3634 91.8223 85.3695 86.3136 84.296 79.7562L26.3918 66.0852C26.3918 66.0852 25.2936 65.4794 26.7744 64.9834L85.7733 78.4702L85.7698 78.4737Z" fill="#162E4C"/>
<path d="M28.8469 79.4905C28.8469 79.4905 30.1895 69.9006 28.7583 66.6414L84.3846 79.7526C84.3846 79.7526 85.7273 88.7615 84.3315 93.5334L28.8469 79.4905Z" fill="#F2F4F8"/>
<path d="M29.8707 78.3675L75.4112 88.6198L29.8884 77.7404L29.9805 76.6705L44.8702 79.9652L30.0903 76.1214C30.0903 76.1214 30.9441 69.8722 30.5615 68.3241L84.3882 79.7526L28.7583 66.6414C30.1931 69.897 28.8469 79.4905 28.8469 79.4905L84.3315 93.5334L29.7821 79.0228L29.8742 78.3675H29.8707Z" fill="url(#paint5_linear_437_1732)"/>
<path d="M83.2869 80.709C83.2869 80.709 36.5774 69.8296 33.0596 68.9404C33.0596 68.9404 68.6878 78.1938 83.2869 80.7055V80.709Z" fill="url(#paint6_linear_437_1732)"/>
<g style="mix-blend-mode:multiply">
<path d="M102.7 57.845C102.7 60.4028 90.9877 67.1621 76.2398 67.9096C61.4918 68.6571 49.291 63.1094 49.291 60.5516C49.291 57.9938 61.2474 55.3156 75.9953 54.5681C90.7433 53.8206 102.7 55.2872 102.7 57.845Z" fill="#D4D4D5"/>
</g>
<path d="M35.761 51.0572C35.761 51.0572 32.9588 51.206 33.0048 56.0239C33.0367 59.1698 35.0702 59.3221 31.5913 64.0728L35.3571 65.3021C35.3571 65.3021 36.2428 64.3987 36.094 63.637C36.094 63.637 36.388 64.6148 35.9487 65.3021C35.9487 65.3021 36.7954 65.6351 38.1239 65.38C38.1239 65.38 38.5915 64.9903 38.3825 63.5662C38.3825 63.5662 39.0733 64.7919 38.751 65.3765C38.751 65.3765 40.9651 64.9053 41.9252 64.218C41.9252 64.218 38.2089 60.8065 38.2833 59.3221C38.3825 57.3241 38.758 57.5579 39.13 55.0958C39.4985 52.6336 38.7439 50.6994 35.7645 51.0572H35.761Z" fill="#2A2E31"/>
<g style="mix-blend-mode:multiply" opacity="0.4">
<path d="M38.2832 59.3187C38.3824 57.3207 38.7579 57.5545 39.1299 55.0924C39.4983 52.6302 38.7437 50.696 35.7644 51.0538C35.7644 51.0538 32.9622 51.2025 33.0082 56.0205C33.0401 59.1664 35.0736 59.3187 31.5947 64.0694C31.5947 64.0694 34.3119 64.2996 34.4395 60.9519C34.567 57.6005 33.7309 53.0908 35.2791 52.5771C36.8272 52.0634 37.6632 55.025 37.6632 55.3474C37.6632 55.3474 38.2442 54.4972 37.4719 52.8357C37.4719 52.8357 39.1476 52.8357 38.8252 54.5114C38.5028 56.187 35.2472 59.3612 41.9321 64.2182C41.9321 64.2182 38.2159 60.8066 38.2903 59.3222L38.2832 59.3187Z" fill="#2A2E31"/>
</g>
<path d="M51.4409 44.213V60.6225C51.4409 60.6225 79.2895 74.8355 100.503 59.4393V43.1361C100.503 43.1361 82.7684 37.6131 51.4409 44.213Z" fill="#2A2E31"/>
<g style="mix-blend-mode:multiply" opacity="0.4">
<path d="M51.4409 44.213V60.6225C51.4409 60.6225 53.2406 61.54 56.266 62.656C56.266 62.656 51.8058 50.0407 59.3055 49.5412C66.9187 49.0346 78.3401 53.0944 78.3401 53.0944C78.3401 53.0944 95.0046 47.7663 100.503 47.5112V43.1361C100.503 43.1361 82.7684 37.6131 51.4409 44.213Z" fill="#2A2E31"/>
</g>
<path d="M32.6611 41.843C32.6611 41.843 53.9771 42.6897 77.4931 48.1028C77.4931 48.1028 107.605 37.7832 119.789 37.2766C119.789 37.2766 93.566 30.8467 75.4632 30C75.4632 30 46.364 35.4131 32.6611 41.843Z" fill="#2A2E31"/>
<path d="M77.4932 48.1028V50.1327C77.4932 50.1327 111.499 39.3064 119.619 38.7963L119.789 37.2729C119.789 37.2729 106.422 37.2729 77.4932 48.0992V48.1028Z" fill="#2A2E31"/>
<path d="M77.4931 50.1328V48.1028C77.4931 48.1028 57.5304 42.6897 32.6611 41.843V43.3663C32.6611 43.3663 67.1734 46.5795 77.4931 50.1328Z" fill="#2A2E31"/>
<path d="M36.558 46.1614C36.5403 46.1614 36.5226 46.1614 36.5049 46.1614C36.1577 46.133 35.8955 45.8248 35.9274 45.4741C36.4553 39.2957 49.0139 36.2633 73.2774 36.4723C73.8619 36.4758 74.3685 36.4829 74.4641 36.4723C74.8078 36.4439 75.116 36.6955 75.1514 37.0355C75.1868 37.3756 74.9601 37.6838 74.62 37.7299C74.4996 37.7476 74.3047 37.7476 73.2632 37.737C50.7852 37.5492 37.6314 40.4046 37.1851 45.5768C37.1567 45.9063 36.8804 46.1578 36.5545 46.1578L36.558 46.1614Z" fill="#2A2E31"/>
<g style="mix-blend-mode:multiply">
<path d="M62.788 37.3864C58.6006 37.5139 54.9907 37.5812 45.7161 39.4482C36.7036 41.262 36.197 45.7611 36.1758 46.0162C36.2679 46.0906 36.3777 46.1473 36.5052 46.1579C36.523 46.1579 36.5407 46.1579 36.5584 46.1579C36.8843 46.1579 37.1606 45.9099 37.189 45.5769C37.6318 40.4047 50.7856 37.5493 73.2671 37.7371C74.3122 37.7477 74.507 37.7442 74.6239 37.73C74.964 37.6804 75.1907 37.3757 75.1553 37.0356C74.6345 37.397 66.9789 37.2553 62.7915 37.3828L62.788 37.3864Z" fill="#2A2E31"/>
</g>
<path d="M35.6051 45.6089H37.3232C37.5606 45.6089 37.7554 45.8037 37.7554 46.0411V50.8874C37.7554 51.1248 37.5606 51.3196 37.3232 51.3196H35.6051C35.3677 51.3196 35.1729 51.1248 35.1729 50.8874V46.0411C35.1729 45.8037 35.3677 45.6089 35.6051 45.6089Z" fill="#2A2E31"/>
<path d="M81.1313 36.7238C81.1313 38.0558 78.9739 39.1363 76.3098 39.1363C73.6457 39.1363 71.4883 38.0558 71.4883 36.7238C71.4883 35.3918 73.6457 34.3113 76.3098 34.3113C78.9739 34.3113 81.1313 35.3918 81.1313 36.7238Z" fill="#2A2E31"/>
<g style="mix-blend-mode:multiply" opacity="0.4">
<path d="M81.1314 36.7238C81.1314 35.3918 78.9739 34.3113 76.3099 34.3113C76.3099 34.3113 80.8799 35.4981 79.3459 37.2552C77.8155 39.0123 72.3457 38.4668 71.5273 37.0249C71.8249 38.2153 73.8478 39.1363 76.3099 39.1363C78.9739 39.1363 81.1314 38.0558 81.1314 36.7238Z" fill="#2A2E31"/>
</g>
</g>
<defs>
<linearGradient id="paint0_linear_437_1732" x1="76.5" y1="0" x2="76.5" y2="153" gradientUnits="userSpaceOnUse">
<stop offset="0.245" stop-color="#418DED"/>
<stop offset="0.945" stop-color="#1637E5"/>
</linearGradient>
<linearGradient id="paint1_linear_437_1732" x1="33.1196" y1="103.821" x2="89.1923" y2="117.276" gradientUnits="userSpaceOnUse">
<stop stop-color="#E5E5E6"/>
<stop offset="0.48" stop-color="#EEEEEF"/>
<stop offset="1" stop-color="white"/>
</linearGradient>
<linearGradient id="paint2_linear_437_1732" x1="124.897" y1="125.338" x2="78.4945" y2="125.696" gradientUnits="userSpaceOnUse">
<stop stop-color="#E5E5E6"/>
<stop offset="0.48" stop-color="#EEEEEF"/>
<stop offset="1" stop-color="white"/>
</linearGradient>
<linearGradient id="paint3_linear_437_1732" x1="119.304" y1="87.1496" x2="66.1748" y2="99.8995" gradientUnits="userSpaceOnUse">
<stop stop-color="#E5E5E6"/>
<stop offset="0.48" stop-color="#EEEEEF"/>
<stop offset="1" stop-color="white"/>
</linearGradient>
<linearGradient id="paint4_linear_437_1732" x1="75.6479" y1="90.3148" x2="122.051" y2="90.6656" gradientUnits="userSpaceOnUse">
<stop stop-color="#E5E5E6"/>
<stop offset="0.48" stop-color="#EEEEEF"/>
<stop offset="1" stop-color="white"/>
</linearGradient>
<linearGradient id="paint5_linear_437_1732" x1="28.5209" y1="73.2448" x2="84.5901" y2="86.6997" gradientUnits="userSpaceOnUse">
<stop stop-color="#E5E5E6"/>
<stop offset="0.48" stop-color="#EEEEEF"/>
<stop offset="1" stop-color="white"/>
</linearGradient>
<linearGradient id="paint6_linear_437_1732" x1="113.956" y1="92.2895" x2="67.553" y2="92.6479" gradientUnits="userSpaceOnUse">
<stop stop-color="#E5E5E6"/>
<stop offset="0.48" stop-color="#EEEEEF"/>
<stop offset="1" stop-color="white"/>
</linearGradient>
</defs>
</svg>
