<svg width="153" height="153" viewBox="0 0 153 153" fill="none" xmlns="http://www.w3.org/2000/svg">
<mask id="mask0_411_863" style="mask-type:alpha" maskUnits="userSpaceOnUse" x="0" y="0" width="153" height="153">
<circle cx="76.5" cy="76.5" r="76.5" fill="#D9D9D9"/>
</mask>
<g mask="url(#mask0_411_863)">
<rect width="153" height="153" fill="url(#paint0_linear_411_863)"/>
<path d="M96.7027 92.6538L124.647 74.3666L108.685 49.9766L94.7138 59.1202L80.4165 63.7902L80.7399 68.2608L96.7027 92.6538Z" fill="#D9D9D9"/>
<path d="M105.048 56.1912L112.762 78.1298L115.951 78.3353L118.306 76.4522L105.048 56.1912Z" fill="#D9D9D9"/>
<path d="M122.806 71.5555L111.341 79.0581L113.18 81.8681L124.645 74.3655L122.806 71.5555Z" fill="#D9D9D9"/>
<path d="M116.086 42.2226L101.957 51.468L120.521 79.8363L134.649 70.5909L116.086 42.2226Z" fill="#F2F4F8"/>
<path d="M128.638 61.4054L114.51 70.6509L120.524 79.8423L134.653 70.5968L128.638 61.4054Z" fill="#F2F4F8"/>
<path d="M87.6069 102.813L108.397 89.2078C112.348 86.6234 113.454 81.3247 110.869 77.374L101.638 63.2642L87.6674 72.4078L73.3701 77.0778L73.6935 81.5514L87.6069 102.813Z" fill="#D9D9D9"/>
<path d="M83.8589 102.354L108.986 85.9132C110.534 84.9006 111.64 83.4738 112.266 81.8718C112.323 84.7192 110.96 87.5333 108.4 89.2079L88.5047 102.227L83.8589 102.354Z" fill="#DBA47B"/>
<path d="M120.512 37.2903L104.959 47.4675L125.392 78.6914L140.944 68.5141L120.512 37.2903Z" fill="#2A2E31"/>
<path d="M135.182 59.7048L119.63 69.8821L125.395 78.6915L140.947 68.5143L135.182 59.7048Z" fill="#2A2E31"/>
<path d="M105.036 92.9681L79.2166 76.0744C76.7682 74.4724 76.0821 71.1867 77.6841 68.7383C79.2861 66.29 82.5718 65.6038 85.0202 67.2058L110.84 84.0996C113.288 85.7016 113.974 88.9873 112.372 91.4356C110.77 93.884 107.485 94.5702 105.036 92.9681Z" fill="#F2F4F8"/>
<path d="M110.839 84.0965L108.43 82.5187C110.658 84.1781 111.235 87.3096 109.694 89.6673C108.092 92.1157 104.806 92.8018 102.358 91.1998L78.9502 75.8809C79.0379 75.9474 79.1255 76.0108 79.2192 76.0713L105.039 92.9651C107.487 94.5671 110.773 93.8809 112.375 91.4326C113.977 88.9842 113.291 85.6985 110.843 84.0965H110.839Z" fill="#F2F4F8"/>
<path d="M74.0508 85.3357L100.75 102.807C103.198 104.409 106.484 103.723 108.086 101.274C109.688 98.8259 109.002 95.5403 106.554 93.9382L76.0881 74.0037L74.0508 85.3387V85.3357Z" fill="#F2F4F8"/>
<g style="mix-blend-mode:multiply">
<path d="M101.472 69.4454C90.7298 82.2646 82.8285 66.8096 82.8285 66.8096L91.0955 79.4444C92.6975 81.8928 92.0114 85.1785 89.563 86.7805C87.1146 88.3825 83.829 87.6964 82.227 85.248L71.1367 68.2998C69.5347 65.8514 70.2209 62.5658 72.6693 60.9638L81.5015 55.1844C82.8678 54.2897 84.5665 54.0751 86.1111 54.601L96.6391 58.189L101.469 69.4454H101.472Z" fill="#D9D9D9"/>
</g>
<path d="M80.4439 114.919L56.994 99.5756C54.5456 97.9736 53.8594 94.6879 55.4615 92.2396C57.0635 89.7912 60.3491 89.105 62.7975 90.7071L86.2475 106.05C88.6958 107.652 89.382 110.938 87.78 113.386C86.1779 115.835 82.8923 116.521 80.4439 114.919Z" fill="#F2F4F8"/>
<path d="M86.2471 106.05L83.8381 104.472C86.0658 106.132 86.6431 109.263 85.1015 111.621C83.4995 114.069 80.2139 114.756 77.7655 113.154L56.7246 99.3853C56.8123 99.4518 56.8999 99.5152 56.9936 99.5757L80.4436 114.919C82.892 116.521 86.1776 115.835 87.7796 113.386C89.3816 110.938 88.6955 107.652 86.2471 106.05Z" fill="#F2F4F8"/>
<path d="M56.3104 92.8562L28.3657 74.569L44.3255 50.179L58.2963 59.3226L72.5936 63.9926L72.2702 68.4662L56.3104 92.8562Z" fill="#F2F4F8"/>
<path d="M38.3377 81.1403L52.2602 55.4173L44.9241 50.6143L28.9644 75.0073L38.3377 81.1403Z" fill="#F2F4F8"/>
<path d="M36.9221 42.4291L18.3584 70.7974L32.4869 80.0428L51.0506 51.6745L36.9221 42.4291Z" fill="#F2F4F8"/>
<path d="M24.3736 61.6101L18.3589 70.8015L32.4874 80.047L38.5021 70.8556L24.3736 61.6101Z" fill="#F2F4F8"/>
<path d="M64.8587 104.654L44.0687 91.0486C40.1181 88.4643 39.0118 83.1655 41.5962 79.2149L50.8274 65.105L64.7983 74.2486L79.0956 78.9186L78.7721 83.3922L64.8587 104.654Z" fill="#F2F4F8"/>
<path d="M68.6067 104.194L43.4791 87.754C41.9315 86.7414 40.8252 85.3147 40.1995 83.7126C40.1421 86.56 41.5053 89.3741 44.0655 91.0487L63.9608 104.067L68.6067 104.194Z" fill="#DBA47B"/>
<path d="M90.8597 109L68.6551 94.4704C66.2067 92.8684 65.5206 89.5827 67.1226 87.1343C68.7246 84.686 72.0103 83.9998 74.4586 85.6018L96.6633 100.132C99.1116 101.734 99.7978 105.02 98.1957 107.468C96.5937 109.916 93.3081 110.602 90.8597 109Z" fill="#F2F4F8"/>
<path d="M96.6634 100.132L94.2543 98.554C96.482 100.213 97.0594 103.345 95.5178 105.703C93.9158 108.151 90.6301 108.837 88.1818 107.235L68.3862 94.283C68.4739 94.3495 68.5615 94.4129 68.6552 94.4734L90.8599 109.003C93.3082 110.605 96.5939 109.919 98.1959 107.471C99.7979 105.023 99.1118 101.737 96.6634 100.135V100.132Z" fill="#F2F4F8"/>
<path d="M106.554 93.9352L104.145 92.3574C106.372 94.0168 106.95 97.1483 105.408 99.506C103.806 101.954 100.52 102.641 98.0719 101.038L74.0537 85.3206V85.3326L100.75 102.804C103.198 104.406 106.484 103.72 108.086 101.271C109.688 98.8229 109.002 95.5372 106.554 93.9352Z" fill="#F2F4F8"/>
<path d="M53.687 57.0859L69.55 51.6814C71.0946 51.1554 72.7963 51.37 74.1596 52.2647L82.9918 58.0441C85.4402 59.6461 86.1264 62.9318 84.5243 65.3801L73.4341 82.3283C71.8321 84.7767 68.5465 85.4628 66.0981 83.8608C63.6497 82.2588 62.9636 78.9731 64.5656 76.5248L72.8326 63.89C72.8326 63.89 65.1822 77.9696 51.8159 69.225" fill="#F2F4F8"/>
<path d="M32.4982 37.4973L12.0659 68.7212L27.6184 78.8985L48.0507 47.6746L32.4982 37.4973Z" fill="#162E4C"/>
<path d="M51.6315 101.949L75.0814 86.6054C77.5298 85.0034 78.216 81.7177 76.6139 79.2693C75.0119 76.821 71.7263 76.1348 69.2779 77.7368L45.8279 93.08C43.3796 94.682 42.6934 97.9676 44.2954 100.416C45.8975 102.864 49.1831 103.551 51.6315 101.949Z" fill="#D9D9D9"/>
<path d="M50.3136 99.9354L73.7636 84.5923C75.8673 83.217 76.6684 80.5993 75.8401 78.3384C76.1273 78.6134 76.3873 78.9218 76.614 79.2694C78.216 81.7177 77.5298 85.0034 75.0815 86.6054L51.6315 101.949C49.1831 103.551 45.8975 102.864 44.2955 100.416C44.0688 100.068 43.8904 99.7057 43.7544 99.3339C45.4955 100.999 48.2129 101.311 50.3166 99.9354H50.3136Z" fill="#D9D9D9"/>
<path d="M44.1622 94.18L64.2177 81.0495C66.6661 79.4475 67.3523 76.1618 65.7502 73.7134C64.1482 71.2651 60.8626 70.5789 58.4142 72.1809L38.3587 85.3115C35.9103 86.9135 35.2242 90.1991 36.8262 92.6475C38.4282 95.0959 41.7139 95.782 44.1622 94.18Z" fill="#D9D9D9"/>
<path d="M42.8444 92.1669L62.8999 79.0364C65.0036 77.6611 65.8047 75.0434 64.9764 72.7825C65.2636 73.0575 65.5236 73.3658 65.7502 73.7135C67.3523 76.1618 66.6661 79.4475 64.2177 81.0495L44.1623 94.18C41.7139 95.782 38.4282 95.0959 36.8262 92.6475C36.5995 92.2999 36.4212 91.9372 36.2852 91.5654C38.0262 93.2309 40.7436 93.5422 42.8474 92.1669H42.8444Z" fill="#D9D9D9"/>
<path d="M61.3581 108.296L81.4135 95.1655C83.8619 93.5634 84.5481 90.2778 82.946 87.8294C81.344 85.381 78.0584 84.6949 75.61 86.2969L55.5545 99.4274C53.1061 101.029 52.42 104.315 54.022 106.763C55.624 109.212 58.9097 109.898 61.3581 108.296Z" fill="#D9D9D9"/>
<path d="M60.0431 106.283L80.0986 93.1524C82.2024 91.777 83.0034 89.1594 82.1752 86.8984C82.4623 87.1735 82.7223 87.4818 82.949 87.8294C84.551 90.2778 83.8649 93.5634 81.4165 95.1655L61.361 108.296C58.9126 109.898 55.627 109.212 54.0249 106.763C53.7982 106.416 53.6199 106.053 53.4839 105.681C55.225 107.347 57.9423 107.661 60.0461 106.283H60.0431Z" fill="#D9D9D9"/>
<path d="M71.2575 114.644L87.0933 104.321C89.5417 102.719 90.2278 99.4335 88.6258 96.9852C87.0238 94.5368 83.7381 93.8506 81.2897 95.4527L65.4539 105.775C63.0055 107.377 62.3194 110.663 63.9214 113.111C65.5234 115.56 68.8091 116.246 71.2575 114.644Z" fill="#D9D9D9"/>
<path d="M69.9425 112.631L85.7783 102.308C87.8821 100.933 88.6831 98.3152 87.8549 96.0542C88.1421 96.3293 88.402 96.6376 88.6287 96.9852C90.2308 99.4336 89.5446 102.719 87.0962 104.321L71.2604 114.644C68.812 116.246 65.5264 115.56 63.9244 113.111C63.6977 112.764 63.5193 112.401 63.3833 112.029C65.1244 113.695 67.8418 114.009 69.9455 112.631H69.9425Z" fill="#D9D9D9"/>
<path d="M17.8292 59.9108L12.0645 68.7202L27.6169 78.8975L33.3817 70.088L17.8292 59.9108Z" fill="#162E4C"/>
<path d="M99.3233 56.8833L83.4602 51.4787C81.9156 50.9528 80.2139 51.1674 78.8506 52.0621L70.0184 57.8415C67.57 59.4435 66.8839 62.7291 68.4859 65.1775L79.5761 82.1257C81.1781 84.5741 84.4638 85.2602 86.9121 83.6582C89.3605 82.0562 90.0467 78.7705 88.4446 76.3221L80.1776 63.6873C80.1776 63.6873 87.828 77.767 101.194 69.0224" fill="#D9D9D9"/>
</g>
<defs>
<linearGradient id="paint0_linear_411_863" x1="76.5" y1="0" x2="76.5" y2="153" gradientUnits="userSpaceOnUse">
<stop offset="0.245" stop-color="#418DED"/>
<stop offset="0.945" stop-color="#1637E5"/>
</linearGradient>
</defs>
</svg>
