<svg width="480" height="480" viewBox="0 0 480 480" fill="none" xmlns="http://www.w3.org/2000/svg">
<circle cx="240" cy="240" r="240" fill="url(#paint0_linear_1_246)"/>
<path d="M255.753 119.652C241.919 110.609 228.722 100.625 216.256 89.7729C207.112 81.7961 198.375 73.3646 190.078 64.5103C186.382 72.2433 183.379 80.2892 181.105 88.5533C179.842 93.1447 178.81 97.7965 178.013 102.491L189.538 111.394L204.504 122.945C198.913 124.192 193.419 125.843 188.066 127.885C185.505 128.869 182.839 129.975 180.156 131.238C178.751 131.895 177.394 132.562 176.088 133.242C176.088 133.556 176.088 133.869 176.088 134.183C179.659 132.85 183.58 131.508 187.831 130.219C201.069 126.236 214.706 123.726 228.495 122.736L231.457 122.553C241.45 121.998 251.472 122.249 261.424 123.302C259.586 122.144 257.678 120.924 255.753 119.652ZM191.028 94.7034C191.521 89.1631 192.015 83.6227 192.509 78.0824C196.375 88.2428 202.204 97.543 209.661 105.453C204.138 102.465 197.953 98.911 191.028 94.7034ZM211.7 106.533C211.499 101.219 211.317 95.9056 211.116 90.5917C214.044 96.6986 217.361 102.611 221.047 108.293C222 109.762 222.955 111.185 223.913 112.561C220.272 110.915 216.212 108.938 211.7 106.533Z" fill="white"/>
<path d="M232 123.189C215.778 126.591 200.399 133.195 186.762 142.615C187.128 138.486 187.496 134.36 187.868 130.237C187.938 129.461 188.007 128.677 188.068 127.902C193.421 125.86 198.915 124.21 204.507 122.963L189.541 111.412L191.03 94.7036C197.956 98.9111 204.141 102.465 209.664 105.445C210.37 106.202 211.066 106.908 211.737 107.57C211.737 107.222 211.737 106.882 211.737 106.533C216.25 108.92 220.309 110.889 223.933 112.562C226.494 116.238 229.047 119.531 231.512 122.571L232 123.189Z" fill="white"/>
<path d="M368.757 295.524C385.613 285.802 391.738 280.384 390.753 277.23C388.436 269.843 348.764 279.844 344.748 269.608C342.814 264.669 350.071 257.665 352.832 254.999C369.471 238.936 395.919 241.549 396.172 243.065C396.337 244.032 385.779 244.346 373.766 252.839C369.435 255.92 365.551 259.584 362.223 263.728C403.82 264.503 407.584 273.249 408.176 275.706C410.92 287.1 379.428 303.861 361.57 313.382C336.916 326.515 310.727 336.537 283.603 343.218C285.411 338.452 288.101 334.07 291.531 330.299C287.534 330.664 283.571 331.328 279.674 332.286C268.15 335.186 257.386 340.534 248.113 347.966C256.877 335.329 269.052 325.444 283.22 319.463C291.752 315.94 300.837 313.944 310.06 313.565L305.565 323.374C327.559 316.362 348.742 307.026 368.757 295.524Z" fill="white"/>
<path d="M273.882 122.726C267.966 121.058 261.889 120.027 255.753 119.651C250.988 119.355 247.652 119.52 246.511 119.459C241.598 119.198 234.463 117.325 223.913 112.56C220.272 110.913 216.213 108.919 211.718 106.532L209.662 105.452C204.139 102.472 197.954 98.9181 191.028 94.7106C187.874 92.7941 184.567 90.7382 181.106 88.543C171.053 82.1664 159.641 74.605 146.678 65.5627C142.306 74.9795 139.369 84.9983 137.967 95.2855C134.413 121.48 141.887 142.518 146.391 152.78C130.128 158.758 115.307 168.096 102.895 180.185C56.8466 225.553 65.0614 292.56 66.4465 302.5C66.0458 289.433 66.7427 252.942 92.6242 226.817C96.8089 222.605 101.439 218.861 106.432 215.649C94.1218 229.332 84.647 245.321 78.5553 262.689C59.9478 316.603 81.4388 365.918 90.3157 383.192C74.731 352.633 73.7031 319.478 86.8312 296.724C94.6723 283.464 105.938 272.56 119.447 265.155C124.437 262.704 129.701 260.853 135.127 259.64C141.042 228.559 161.714 199.986 190.88 186.292C178.384 183.014 165.436 181.807 152.55 182.72C169.485 162.85 191.2 147.618 215.649 138.459C240.097 129.3 266.475 126.514 292.298 130.366C286.475 127.116 280.295 124.552 273.882 122.726ZM161.627 142.039C159.994 129.799 156.869 117.804 152.323 106.323L163.805 117.743C163.438 106.432 160.642 95.3328 155.608 85.1979L178.013 102.498L189.538 111.401L204.504 122.952C198.913 124.199 193.419 125.85 188.066 127.892C185.505 128.876 182.839 129.982 180.156 131.245C178.751 131.902 177.395 132.57 176.088 133.249C171.063 135.828 166.23 138.766 161.627 142.039Z" fill="white"/>
<path d="M436.541 232.419C433.692 220.302 417.933 218.621 395.11 205.51C377.905 195.632 377.312 191.093 353.295 171.824C334.048 156.437 313.634 142.571 292.237 130.35C266.414 126.498 240.037 129.284 215.588 138.443C191.139 147.602 169.424 162.834 152.489 182.704C165.375 181.791 178.324 182.998 190.819 186.276C161.671 199.97 140.999 228.543 135.066 259.624L143.229 257.795C181.042 249.316 218.817 240.643 256.555 231.775C231.74 235.669 206.326 231.993 183.632 221.225C199.457 225.768 215.807 228.225 232.268 228.534C263.803 229.031 297.438 221.339 310.6 217.628C311.132 217.479 311.864 217.27 312.953 216.983C319.652 215.241 332.24 211.983 347.432 213.063C352.659 213.429 360.273 213.934 369.306 217.514C378.34 221.095 378.636 223.238 393.899 231.452C405.136 237.498 408.569 238.186 408.847 240.834C409.126 243.483 406.234 248.674 382.644 256.976C397.453 266.393 415.224 265.688 426.2 256.105C431.584 251.453 438.762 241.888 436.541 232.419ZM292.098 179.35C281.722 177.512 277.55 177.869 270.598 175.666C264.03 173.531 257.932 170.157 252.635 165.726C254.186 164.515 263.463 157.511 276.042 159.628C282.561 160.776 288.519 164.039 292.995 168.914C292.902 164.337 291.052 159.97 287.829 156.719C294.53 160.276 300.272 165.402 304.564 171.658C307.098 175.395 309.07 179.484 310.418 183.793C304.41 181.931 298.291 180.447 292.098 179.35Z" fill="white"/>
<path d="M86.2637 361.14C83.35 347.548 84.062 333.428 88.3283 320.197L79.8173 328.708C81.3785 315.941 85.8133 303.694 92.7885 292.888C96.9466 286.498 101.955 280.704 107.676 275.665C103.842 291.324 102.059 307.415 102.371 323.534L94.4263 320.049C89.8963 339.101 95.7155 358.701 109.645 370.688C124.393 383.38 142.191 382.326 146.015 382.012L108.121 400.768C97.1553 389.951 89.5629 376.185 86.2637 361.14Z" fill="white"/>
<path d="M308.753 311.692C308.91 312.981 288.325 309.706 268.524 323.348C253.253 333.871 249.908 346.311 233.13 354.813C227.476 357.679 218.573 360.78 205.471 360.257C216.309 355.899 226.367 349.812 235.255 342.234C246.014 333.017 246.702 328.636 254.368 322.468C276.164 304.941 308.544 309.967 308.753 311.692Z" fill="white"/>
<path d="M243.721 324.271C235.972 328.402 227.62 331.286 218.972 332.817C227.231 328.345 235.099 323.187 242.493 317.398C257.721 305.437 261.658 298.634 273.715 294.592C280.574 292.538 287.869 292.426 294.788 294.269C309.597 298.207 317.263 309.95 319.232 313.164C309.163 308.524 298.138 306.339 287.061 306.787C279.874 307.118 272.966 307.423 265.334 311.37C255.952 316.187 253.409 319.062 243.721 324.271Z" fill="white"/>
<path d="M110.353 403.212L220.935 375.937L199.374 361.782L242.931 328.679L156.906 356.99L181.516 368.533L110.353 403.212Z" fill="white"/>
<defs>
<linearGradient id="paint0_linear_1_246" x1="240" y1="0" x2="240" y2="480" gradientUnits="userSpaceOnUse">
<stop offset="0.390625" stop-color="#418DED"/>
<stop offset="1" stop-color="#1650E5"/>
</linearGradient>
</defs>
</svg>
